<svg width="100" height="101" viewBox="0 0 100 101" fill="none" xmlns="http://www.w3.org/2000/svg">
<path d="M33.3337 100.289C42.5337 100.289 50.0003 92.8219 50.0003 83.6219V66.9553H33.3337C24.1337 66.9553 16.667 74.4219 16.667 83.6219C16.667 92.8219 24.1337 100.289 33.3337 100.289Z" fill="#0ACF83"/>
<path d="M16.667 50.2884C16.667 41.0884 24.1337 33.6218 33.3337 33.6218H50.0003V66.9551H33.3337C24.1337 66.9551 16.667 59.4884 16.667 50.2884Z" fill="#A259FF"/>
<path d="M16.667 16.9552C16.667 7.75521 24.1337 0.288544 33.3337 0.288544H50.0003V33.6219H33.3337C24.1337 33.6219 16.667 26.1552 16.667 16.9552Z" fill="#F24E1E"/>
<path d="M50 0.288544H66.6667C75.8667 0.288544 83.3334 7.75521 83.3334 16.9552C83.3334 26.1552 75.8667 33.6219 66.6667 33.6219H50V0.288544Z" fill="#FF7262"/>
<path d="M83.3334 50.2884C83.3334 59.4884 75.8667 66.9551 66.6667 66.9551C57.4667 66.9551 50 59.4884 50 50.2884C50 41.0884 57.4667 33.6218 66.6667 33.6218C75.8667 33.6218 83.3334 41.0884 83.3334 50.2884Z" fill="#1ABCFE"/>
</svg>
