<svg width="100" height="101" viewBox="0 0 100 101" fill="none" xmlns="http://www.w3.org/2000/svg">
<path d="M100 0.288544H0V100.289H100V0.288544Z" fill="#F7DF1E"/>
<path d="M67.1745 78.414C69.1888 81.7029 71.8094 84.1203 76.4444 84.1203C80.338 84.1203 82.8253 82.1743 82.8253 79.4854C82.8253 76.2632 80.2698 75.1219 75.9841 73.2473L73.6348 72.2394C66.8539 69.3505 62.3491 65.7314 62.3491 58.0806C62.3491 51.033 67.719 45.6679 76.111 45.6679C82.0856 45.6679 86.3809 47.7473 89.4761 53.1917L82.1586 57.8902C80.5475 55.0013 78.8094 53.8632 76.111 53.8632C73.3587 53.8632 71.6142 55.6092 71.6142 57.8902C71.6142 60.7092 73.3602 61.8505 77.392 63.5965L79.7412 64.6029C87.7253 68.0267 92.2333 71.5171 92.2333 79.3648C92.2333 87.8251 85.5872 92.46 76.6618 92.46C67.9348 92.46 62.2967 88.3013 59.538 82.8505L67.1745 78.414ZM33.9793 79.2283C35.4555 81.8473 36.7983 84.0616 40.0269 84.0616C43.1142 84.0616 45.0618 82.8537 45.0618 78.1568V46.2044H54.4586V78.2838C54.4586 88.014 48.7539 92.4425 40.4269 92.4425C32.9031 92.4425 28.546 88.5489 26.3301 83.8592L33.9793 79.2283Z" fill="black"/>
</svg>
